<svg width="25" height="24" viewBox="0 0 25 24" fill="none" xmlns="http://www.w3.org/2000/svg">
<path fill-rule="evenodd" clip-rule="evenodd" d="M12.3452 6.78359C12.4557 6.6349 12.5798 6.48919 12.7186 6.35003C13.4603 5.60598 14.5846 5.08792 16.1438 5.25955C18.3681 5.50442 19.9477 7.85261 19.7429 10.5158C19.533 13.2447 17.5274 16.3276 12.7364 18.6477C12.6189 18.7184 12.4834 18.7562 12.3452 18.7556C12.207 18.7562 12.0715 18.7184 11.9541 18.6477C7.16301 16.3276 5.15741 13.2447 4.94754 10.5158C4.74272 7.85261 6.32232 5.50442 8.54668 5.25955C10.1058 5.08792 11.2301 5.60598 11.9719 6.35003C12.1106 6.48919 12.2347 6.6349 12.3452 6.78359ZM12.3452 9.38022C12.3811 9.38035 12.4175 9.3779 12.4541 9.37271C12.8214 9.32066 13.0886 9.01082 13.0987 8.65211C13.1632 8.33818 13.3675 7.82366 13.7808 7.40906C14.2026 6.98605 14.8763 6.62909 15.9796 6.75054C17.1619 6.88069 18.4102 8.28261 18.2473 10.4008C18.0943 12.39 16.626 15.0203 12.3452 17.1682C8.06449 15.0203 6.5961 12.39 6.44312 10.4008C6.28022 8.28261 7.52856 6.88069 8.71081 6.75054C9.81413 6.62909 10.4879 6.98605 10.9096 7.40906C11.3229 7.82366 11.5272 8.33818 11.5917 8.6521C11.6018 9.01082 11.869 9.32066 12.2363 9.37271C12.2729 9.3779 12.3093 9.38035 12.3452 9.38022Z" fill="#999999"/>
</svg>
