<svg width="24" height="25" viewBox="0 0 24 25" fill="none" xmlns="http://www.w3.org/2000/svg">
<path fill-rule="evenodd" clip-rule="evenodd" d="M11.9937 7.35878C12.1042 7.21009 12.2283 7.06438 12.367 6.92523C13.1088 6.18118 14.2331 5.66311 15.7922 5.83475C18.0166 6.07961 19.5962 8.42781 19.3913 11.091C19.1815 13.8199 17.1759 16.9028 12.3848 19.2229C12.2674 19.2936 12.1318 19.3314 11.9936 19.3308C11.8555 19.3314 11.7199 19.2936 11.6025 19.2229C6.81145 16.9028 4.80585 13.8199 4.59598 11.091C4.39116 8.42781 5.97076 6.07961 8.19511 5.83475C9.75424 5.66311 10.8786 6.18118 11.6203 6.92523C11.759 7.06438 11.8831 7.21009 11.9937 7.35878ZM11.9937 9.95542C12.0296 9.95555 12.066 9.9531 12.1026 9.94791C12.4698 9.89586 12.7371 9.58601 12.7471 9.2273C12.8117 8.91338 13.016 8.39886 13.4293 7.98425C13.851 7.56125 14.5248 7.20428 15.6281 7.32574C16.8103 7.45589 18.0587 8.85781 17.8958 10.976C17.7428 12.9652 16.2744 15.5955 11.9937 17.7434C7.71292 15.5955 6.24454 12.9652 6.09156 10.976C5.92866 8.85781 7.177 7.45588 8.35925 7.32574C9.46256 7.20428 10.1363 7.56125 10.558 7.98425C10.9714 8.39886 11.1757 8.91337 11.2402 9.2273C11.2503 9.58601 11.5175 9.89586 11.8847 9.94791C11.9214 9.9531 11.9577 9.95555 11.9937 9.95542Z" fill="#999999"/>
</svg>
