<svg width="24" height="25" viewBox="0 0 24 25" fill="none" xmlns="http://www.w3.org/2000/svg">
<g clip-path="url(#clip0_913_735)">
<path d="M16.5 3.23242C14.76 3.23242 13.09 4.04242 12 5.32242C10.91 4.04242 9.24 3.23242 7.5 3.23242C4.42 3.23242 2 5.65242 2 8.73242C2 12.5124 5.4 15.5924 10.55 20.2724L12 21.5824L13.45 20.2624C18.6 15.5924 22 12.5124 22 8.73242C22 5.65242 19.58 3.23242 16.5 3.23242ZM12.1 18.7824L12 18.8824L11.9 18.7824C7.14 14.4724 4 11.6224 4 8.73242C4 6.73242 5.5 5.23242 7.5 5.23242C9.04 5.23242 10.54 6.22242 11.07 7.59242H12.94C13.46 6.22242 14.96 5.23242 16.5 5.23242C18.5 5.23242 20 6.73242 20 8.73242C20 11.6224 16.86 14.4724 12.1 18.7824Z" fill="#1A1A1A"/>
</g>
<defs>
<clipPath id="clip0_913_735">
<rect width="24" height="24" fill="white" transform="translate(0 0.232422)"/>
</clipPath>
</defs>
</svg>
