<svg width="18" height="22" viewBox="0 0 18 22" fill="none" xmlns="http://www.w3.org/2000/svg">
<path d="M11.9204 1.03789C11.9213 1.03789 11.9222 1.03801 11.923 1.03826C13.9706 1.63051 15.4829 2.8173 16.4653 4.59865C17.4987 6.39644 17.4987 8.23978 17.1507 10.2894C16.7973 12.3712 15.9217 13.6466 15.0436 14.9219C13.4237 17.001 8.84007 22.3006 6.62587 21.1512C4.41167 20.0018 7.98335 16.4491 6.20288 15.9373C4.20555 15.364 2.58301 14.6513 1.60041 12.8696C0.617808 11.0879 0.39028 9.19093 0.915048 7.17879C1.31398 5.79628 2.06362 4.54238 3.16403 3.41708C4.26443 2.29179 5.57365 1.50676 7.08905 1.05664C8.67097 0.571819 10.2797 0.563658 11.9178 1.03751C11.9186 1.03776 11.9195 1.03789 11.9204 1.03789Z" fill="#1A1A1A"/>
</svg>
