<svg width="24" height="25" viewBox="0 0 24 25" fill="none" xmlns="http://www.w3.org/2000/svg">
<g clip-path="url(#clip0_913_740)">
<path d="M11.9961 6.23242C15.7861 6.23242 19.1661 8.36242 20.8161 11.7324C19.1661 15.1024 15.7861 17.2324 11.9961 17.2324C8.20609 17.2324 4.82609 15.1024 3.17609 11.7324C4.82609 8.36242 8.20609 6.23242 11.9961 6.23242ZM11.9961 4.23242C6.99609 4.23242 2.72609 7.34242 0.996094 11.7324C2.72609 16.1224 6.99609 19.2324 11.9961 19.2324C16.9961 19.2324 21.2661 16.1224 22.9961 11.7324C21.2661 7.34242 16.9961 4.23242 11.9961 4.23242ZM11.9961 9.23242C13.3761 9.23242 14.4961 10.3524 14.4961 11.7324C14.4961 13.1124 13.3761 14.2324 11.9961 14.2324C10.6161 14.2324 9.49609 13.1124 9.49609 11.7324C9.49609 10.3524 10.6161 9.23242 11.9961 9.23242ZM11.9961 7.23242C9.51609 7.23242 7.49609 9.25242 7.49609 11.7324C7.49609 14.2124 9.51609 16.2324 11.9961 16.2324C14.4761 16.2324 16.4961 14.2124 16.4961 11.7324C16.4961 9.25242 14.4761 7.23242 11.9961 7.23242Z" fill="#1A1A1A"/>
</g>
<defs>
<clipPath id="clip0_913_740">
<rect width="24" height="24" fill="white" transform="translate(0 0.232422)"/>
</clipPath>
</defs>
</svg>
